<?xml version="1.0" encoding="utf-8"?>
<!-- Generator: Adobe Illustrator 23.0.2, SVG Export Plug-In . SVG Version: 6.00 Build 0)  -->
<svg version="1.1" id="圖層_1" xmlns="http://www.w3.org/2000/svg" xmlns:xlink="http://www.w3.org/1999/xlink" x="0px" y="0px"
	 viewBox="0 0 1000 1000" style="enable-background:new 0 0 1000 1000;" xml:space="preserve">
<style type="text/css">
	.st0{clip-path:url(#SVGID_2_);}
	.st1{fill:none;stroke:#979797;stroke-width:80;stroke-miterlimit:10;}
	.st2{fill:none;stroke:#979797;stroke-width:80;stroke-linecap:round;stroke-miterlimit:10;}
	.st3{clip-path:url(#SVGID_4_);}
	.st4{clip-path:url(#SVGID_6_);}
	.st5{clip-path:url(#SVGID_8_);}
	.st6{clip-path:url(#SVGID_10_);}
	.st7{fill:#979797;}
	.st8{clip-path:url(#SVGID_12_);}
	.st9{clip-path:url(#SVGID_14_);}
	.st10{clip-path:url(#SVGID_16_);}
	.st11{clip-path:url(#SVGID_18_);}
	.st12{clip-path:url(#SVGID_20_);}
	.st13{clip-path:url(#SVGID_22_);}
	.st14{clip-path:url(#SVGID_24_);}
	.st15{clip-path:url(#SVGID_26_);}
	.st16{clip-path:url(#SVGID_28_);}
	.st17{clip-path:url(#SVGID_30_);}
	.st18{clip-path:url(#SVGID_32_);}
	.st19{clip-path:url(#SVGID_34_);}
	.st20{clip-path:url(#SVGID_36_);}
	.st21{clip-path:url(#SVGID_38_);}
	.st22{clip-path:url(#SVGID_40_);}
	.st23{clip-path:url(#SVGID_42_);}
	.st24{clip-path:url(#SVGID_44_);}
	.st25{clip-path:url(#SVGID_46_);}
</style>
<g>
	<path d="M892.51,334.17c-21.46-50.73-52.17-96.29-91.28-135.4s-84.66-69.82-135.4-91.28C613.29,85.27,557.49,74,500,74
		s-113.29,11.27-165.83,33.49c-50.73,21.46-96.29,52.17-135.4,91.28c-39.11,39.11-69.82,84.66-91.28,135.4
		C85.27,386.71,74,442.51,74,500s11.27,113.29,33.49,165.83c21.46,50.73,52.17,96.29,91.28,135.4
		c39.11,39.11,84.66,69.82,135.4,91.28C386.71,914.73,442.51,926,500,926s113.29-11.27,165.83-33.49
		c50.73-21.46,96.29-52.17,135.4-91.28s69.82-84.66,91.28-135.4C914.73,613.29,926,557.49,926,500S914.73,386.71,892.51,334.17z
		 M500,846c-190.79,0-346-155.21-346-346s155.21-346,346-346s346,155.21,346,346S690.79,846,500,846z"/>
	<path d="M663.81,481.02l-54.78-94.88C624.74,364.25,634,337.44,634,308.5c0-73.61-59.89-133.5-133.5-133.5S367,234.89,367,308.5
		c0,29.19,9.42,56.21,25.37,78.2l-54.45,94.32c-0.56-0.01-1.12-0.02-1.69-0.02c-73.61,0-133.5,59.89-133.5,133.5
		S262.62,748,336.23,748c63.83,0,117.34-45.04,130.43-105h68.41c13.09,59.96,66.59,105,130.43,105c73.61,0,133.5-59.89,133.5-133.5
		S739.11,481,665.5,481C664.94,481,664.37,481.01,663.81,481.02z M336.23,668c-29.5,0-53.5-24-53.5-53.5s24-53.5,53.5-53.5
		s53.5,24,53.5,53.5S365.73,668,336.23,668z M500.5,255c29.5,0,53.5,24,53.5,53.5S530,362,500.5,362S447,338,447,308.5
		S471,255,500.5,255z M542.34,563h-82.94c-9.41-22.42-24.77-41.75-44.1-56l41.73-72.28c13.63,4.71,28.26,7.27,43.48,7.27
		c15.44,0,30.27-2.64,44.08-7.49L586.43,507C567.11,521.25,551.75,540.58,542.34,563z M719,614.5c0,29.5-24,53.5-53.5,53.5
		S612,644,612,614.5s24-53.5,53.5-53.5S719,585,719,614.5z"/>
</g>
</svg>
