<?xml version="1.0" encoding="utf-8"?>
<!-- Generator: Adobe Illustrator 23.0.2, SVG Export Plug-In . SVG Version: 6.00 Build 0)  -->
<svg version="1.1" id="圖層_1" xmlns="http://www.w3.org/2000/svg" xmlns:xlink="http://www.w3.org/1999/xlink" x="0px" y="0px"
	 viewBox="0 0 1000 1000" style="enable-background:new 0 0 1000 1000;" xml:space="preserve">
<style type="text/css">
	.st0{clip-path:url(#SVGID_2_);}
	.st1{fill:none;stroke:#979797;stroke-width:80;stroke-miterlimit:10;}
	.st2{fill:none;stroke:#979797;stroke-width:80;stroke-linecap:round;stroke-miterlimit:10;}
	.st3{clip-path:url(#SVGID_4_);}
	.st4{clip-path:url(#SVGID_6_);}
	.st5{clip-path:url(#SVGID_8_);}
	.st6{clip-path:url(#SVGID_10_);}
	.st7{fill:#979797;}
	.st8{clip-path:url(#SVGID_12_);}
	.st9{clip-path:url(#SVGID_14_);}
	.st10{clip-path:url(#SVGID_16_);}
	.st11{clip-path:url(#SVGID_18_);}
	.st12{clip-path:url(#SVGID_20_);}
	.st13{clip-path:url(#SVGID_22_);}
	.st14{clip-path:url(#SVGID_24_);}
	.st15{clip-path:url(#SVGID_26_);}
	.st16{clip-path:url(#SVGID_28_);}
	.st17{clip-path:url(#SVGID_30_);}
	.st18{clip-path:url(#SVGID_32_);}
	.st19{clip-path:url(#SVGID_34_);}
	.st20{clip-path:url(#SVGID_36_);}
	.st21{clip-path:url(#SVGID_38_);}
	.st22{clip-path:url(#SVGID_40_);}
	.st23{clip-path:url(#SVGID_42_);}
	.st24{clip-path:url(#SVGID_44_);}
	.st25{clip-path:url(#SVGID_46_);}
</style>
<g>
	<path d="M892.51,334.17c-21.46-50.73-52.17-96.29-91.28-135.4s-84.66-69.82-135.4-91.28C613.29,85.27,557.49,74,500,74
		s-113.29,11.27-165.83,33.49c-50.73,21.46-96.29,52.17-135.4,91.28c-39.11,39.11-69.82,84.66-91.28,135.4
		C85.27,386.71,74,442.51,74,500s11.27,113.29,33.49,165.83c21.46,50.73,52.17,96.29,91.28,135.4
		c39.11,39.11,84.66,69.82,135.4,91.28C386.71,914.73,442.51,926,500,926s113.29-11.27,165.83-33.49
		c50.73-21.46,96.29-52.17,135.4-91.28s69.82-84.66,91.28-135.4C914.73,613.29,926,557.49,926,500S914.73,386.71,892.51,334.17z
		 M500,846c-190.79,0-346-155.21-346-346s155.21-346,346-346s346,155.21,346,346S690.79,846,500,846z"/>
	<path d="M660.64,338.9c-15.62-15.62-40.95-15.62-56.57,0L500,442.96L395.94,338.9c-15.62-15.62-40.95-15.62-56.57,0
		c-15.62,15.62-15.62,40.95,0,56.57l104.07,104.07L339.37,603.6c-15.62,15.62-15.62,40.95,0,56.57
		c7.81,7.81,18.05,11.72,28.28,11.72s20.47-3.91,28.28-11.72L500,556.1l104.07,104.07c7.81,7.81,18.05,11.72,28.28,11.72
		s20.47-3.91,28.28-11.72c15.62-15.62,15.62-40.95,0-56.57L556.57,499.53l104.07-104.07C676.26,379.84,676.26,354.52,660.64,338.9z"
		/>
</g>
</svg>
