<?xml version="1.0" encoding="utf-8"?>
<!-- Generator: Adobe Illustrator 23.0.2, SVG Export Plug-In . SVG Version: 6.00 Build 0)  -->
<svg version="1.1" id="圖層_1" xmlns="http://www.w3.org/2000/svg" xmlns:xlink="http://www.w3.org/1999/xlink" x="0px" y="0px"
	 viewBox="0 0 1000 1000" style="enable-background:new 0 0 1000 1000;" xml:space="preserve">
<style type="text/css">
	.st0{clip-path:url(#SVGID_2_);}
	.st1{fill:none;stroke:#979797;stroke-width:80;stroke-miterlimit:10;}
	.st2{fill:none;stroke:#979797;stroke-width:80;stroke-linecap:round;stroke-miterlimit:10;}
	.st3{clip-path:url(#SVGID_4_);}
	.st4{clip-path:url(#SVGID_6_);}
	.st5{clip-path:url(#SVGID_8_);}
	.st6{clip-path:url(#SVGID_10_);}
	.st7{fill:#979797;}
	.st8{clip-path:url(#SVGID_12_);}
	.st9{clip-path:url(#SVGID_14_);}
	.st10{clip-path:url(#SVGID_16_);}
	.st11{clip-path:url(#SVGID_18_);}
	.st12{clip-path:url(#SVGID_20_);}
	.st13{clip-path:url(#SVGID_22_);}
	.st14{clip-path:url(#SVGID_24_);}
	.st15{clip-path:url(#SVGID_26_);}
	.st16{clip-path:url(#SVGID_28_);}
	.st17{clip-path:url(#SVGID_30_);}
	.st18{clip-path:url(#SVGID_32_);}
	.st19{clip-path:url(#SVGID_34_);}
	.st20{clip-path:url(#SVGID_36_);}
	.st21{clip-path:url(#SVGID_38_);}
	.st22{clip-path:url(#SVGID_40_);}
	.st23{clip-path:url(#SVGID_42_);}
	.st24{clip-path:url(#SVGID_44_);}
	.st25{clip-path:url(#SVGID_46_);}
</style>
<path d="M892.51,334.17c-21.46-50.73-52.17-96.29-91.28-135.4c-39.11-39.11-84.66-69.82-135.4-91.28C613.29,85.27,557.49,74,500,74
	s-113.29,11.27-165.83,33.49c-50.73,21.46-96.29,52.17-135.4,91.28c-39.11,39.11-69.82,84.66-91.28,135.4
	C85.27,386.71,74,442.51,74,500s11.27,113.29,33.49,165.83c21.46,50.73,52.17,96.29,91.28,135.4
	c39.11,39.11,84.66,69.82,135.4,91.28C386.71,914.73,442.51,926,500,926s113.29-11.27,165.83-33.49
	c50.73-21.46,96.29-52.17,135.4-91.28c39.11-39.11,69.82-84.66,91.28-135.4C914.73,613.29,926,557.49,926,500
	S914.73,386.71,892.51,334.17z M500,846c-183.99,0-334.9-144.36-345.41-325.77l25.86,25.86c7.81,7.81,18.05,11.72,28.28,11.72
	c10.24,0,20.47-3.91,28.28-11.72c15.62-15.62,15.62-40.95,0-56.57l-72.87-72.87c3.38-13.61,7.56-26.9,12.5-39.83l250.89,250.89
	c7.81,7.81,18.05,11.72,28.28,11.72s20.47-3.91,28.28-11.72c15.62-15.62,15.62-40.95,0-56.57L220.53,307.57
	c-1.59-1.59-3.28-3-5.04-4.27c7.5-10.82,15.61-21.19,24.26-31.06c1.77,3.21,4.01,6.23,6.74,8.96l301.64,301.64
	c7.81,7.81,18.05,11.72,28.28,11.72s20.47-3.91,28.28-11.72c15.62-15.62,15.62-40.95,0-56.57L303.05,224.63
	c-1.82-1.82-3.78-3.42-5.84-4.82c11.9-8.64,24.36-16.53,37.33-23.62c1.75,6.58,5.2,12.81,10.36,17.97l248.21,248.21
	c7.81,7.81,18.05,11.72,28.28,11.72s20.47-3.91,28.28-11.72c15.62-15.62,15.62-40.95,0-56.57L409.81,165.92
	c14.18-3.83,28.71-6.78,43.54-8.78l129.59,129.59c7.81,7.81,18.05,11.72,28.28,11.72c10.24,0,20.47-3.91,28.28-11.72
	c15.62-15.62,15.62-40.95,0-56.57l-68.92-68.92C727.64,193.93,846,333.4,846,500C846,690.79,690.79,846,500,846z"/>
</svg>
