<svg id="圖層_1" data-name="圖層 1" xmlns="http://www.w3.org/2000/svg" viewBox="0 0 1518.55 1019.55"><defs><style>.cls-1{fill:#FFF;}</style></defs><title>logotype</title><path class="cls-1" d="M1410.64,230.43h-30.06a7.23,7.23,0,0,0-7,7l.32,38.33a7.22,7.22,0,0,1-7,7h-65.61c-5.32,0-7.21-6.32-3.07-10.25l127.54-120.7c4.15-3.92,2.25-10.25-3.07-10.25h-40a7.06,7.06,0,0,0-4.71,1.91L1352.32,167a7.05,7.05,0,0,1-4.7,1.9h-35.9c-5.38,0-7.23-6.45-3-10.34L1377,96.39c4.27-3.89,2.42-10.34-3-10.34h-41.8a7.07,7.07,0,0,0-4.74,1.94l-79.31,73.72a7.17,7.17,0,0,0-2.24,4.18l-6,42.94a5.2,5.2,0,0,0,5.26,6.12h41.77c5.35,0,7.22,6.37,3,10.28l-60.26,56.21-.19,1.37-5.61,39.89a5.19,5.19,0,0,0,5.26,6.11h67.35L1273.92,489.4a5.2,5.2,0,0,0,5.26,6.12h35.59a7.29,7.29,0,0,0,7-6.12l21.7-154.47a7.29,7.29,0,0,1,7-6.12H1370a5.16,5.16,0,0,1,5.32,5.22l0,4.14a5.16,5.16,0,0,0,5.32,5.22H1411a7.23,7.23,0,0,0,7-7.09L1416,235.57A5.16,5.16,0,0,0,1410.64,230.43Z"/><path class="cls-1" d="M441.57,350.5a5.15,5.15,0,0,0-3.72-5.9c-31.86-8.65-46.94-14.47-64.52-22-11-4.73-36.54-19.12-54.54-29.5-5.15-3-1.84-11.43,4.48-11.43H493.59a7.21,7.21,0,0,0,6.92-6.07l5.63-40.05a5.15,5.15,0,0,0-5.21-6.07H312.61a5.16,5.16,0,0,1-5.22-6.07L312,191a7.22,7.22,0,0,1,6.92-6.08h140a7.21,7.21,0,0,0,6.92-6.07l5.63-40.05a5.16,5.16,0,0,0-5.22-6.07h-140a5.15,5.15,0,0,1-5.22-6.07l4.46-31.77a5.15,5.15,0,0,0-5.22-6.07H277a7.22,7.22,0,0,0-6.93,6.07L252,223.42a7.22,7.22,0,0,1-6.92,6.07H97.77a7.22,7.22,0,0,0-6.93,6.07l-5.63,40.05a5.15,5.15,0,0,0,5.22,6.07H237.75a5.16,5.16,0,0,1,5.22,6.08l-28,199a5.15,5.15,0,0,0,5.22,6.07h43.24a7.21,7.21,0,0,0,6.92-6.07l18.89-134.38c.65-4.67,6.1-7.59,9.82-5.26,39.45,24.71,86.71,43.87,127.69,54.08,3.68.92,7.74-2,8.31-5.89Z"/><path class="cls-1" d="M829.19,681.51a206.8,206.8,0,0,1-37.73,7.72,7.27,7.27,0,0,0-6.22,6L781,725.7a5.23,5.23,0,0,0,5.95,6.07,252.09,252.09,0,0,0,42.84-8.06,263.33,263.33,0,0,0,40.49-15.06,6.05,6.05,0,0,1,5.65.08,178.8,178.8,0,0,0,39.21,16.94,168.39,168.39,0,0,0,43.51,6.65,7.28,7.28,0,0,0,7.2-6.11l4.52-32.16a5.17,5.17,0,0,0-5.08-6.09,132.68,132.68,0,0,1-23.31-2.53q-8.18-1.71-16.62-4.19c-4.06-1.19-5-6.38-1.68-9.75a195.13,195.13,0,0,0,27.8-35.86,212.13,212.13,0,0,0,20.38-45.55,7.33,7.33,0,0,1,6.74-5.13h1a7.26,7.26,0,0,0,7-6.1l4.16-29.55a5.19,5.19,0,0,0-5.25-6.11H891.56a5.24,5.24,0,0,1-5.06-7l1.36-4.73a5.25,5.25,0,0,0-5.06-7H847a7.28,7.28,0,0,0-6.89,5.74,86.46,86.46,0,0,1-14.79,33.63Q814,579.61,798.54,586.5a7.29,7.29,0,0,0-4.25,5.49l-5.36,38.12c-.63,4.47,3.6,7.4,7.93,5.53q5.14-2.22,10.27-4.78c3.35-1.67,7-.37,8,2.86a143.08,143.08,0,0,0,18.26,38.09C835.67,675.17,833.5,680.18,829.19,681.51ZM865.59,585h56.94c3.93,0,6.36,3.69,4.89,7.51a150.89,150.89,0,0,1-17,32.29,135.61,135.61,0,0,1-26.74,28.42c-2.64,2.11-6.23,2.16-8.26,0Q862.51,639.79,857,619.12A5.08,5.08,0,0,0,852,615.4h-4.57c-15.44-.29-14.2,1.91-3.11-10.17,5-5.47,10.8-11.1,15.77-17.43A7.22,7.22,0,0,1,865.59,585Z"/><path class="cls-1" d="M686.72,405.59l48.47,35.76c3.67,2.71,9.51-.19,10.19-5.06l5.68-40.36a5.27,5.27,0,0,0-2.11-5.15l-48.73-34c-3.69-2.58-9.41.34-10.08,5.15l-5.42,38.55A5.26,5.26,0,0,0,686.72,405.59Z"/><path class="cls-1" d="M696.08,248.48q38.64-4.65,63.24-13.72a7.32,7.32,0,0,0,4.71-5.69l4.7-33.46c.59-4.21-3.16-7.15-7.32-5.72q-27.69,9.5-69.76,14.58-47.07,5.7-125.24,5.91a7.25,7.25,0,0,0-6.94,6.09L555,248.35a5.17,5.17,0,0,0,5.36,6.08l70.23-1.54a5.17,5.17,0,0,1,5.36,6.08l-3,21.4a7.23,7.23,0,0,1-6.94,6.08H555.72a7.24,7.24,0,0,0-6.94,6.09L544,326.37a5.16,5.16,0,0,0,5.22,6.09h76.36l-11.27,80.16-5.82,41.45-5,35.36a5.17,5.17,0,0,0,5.23,6.09H649.9a7.24,7.24,0,0,0,6.94-6.09l5-35.36h0l17.09-121.61h75a7.24,7.24,0,0,0,6.94-6.09l4.76-33.83a5.17,5.17,0,0,0-5.23-6.09H691.45a5.16,5.16,0,0,1-5.23-6.08l3.63-25.85A7.3,7.3,0,0,1,696.08,248.48Z"/><path class="cls-1" d="M603.88,377.53c.79-5.59-5.79-8.27-10-4q-3.14,3.11-6.5,6.11a178.45,178.45,0,0,1-51.56,31.91,7.34,7.34,0,0,0-4.5,5.6l-6.66,47.41c-.63,4.49,3.68,7.46,8,5.48a272.81,272.81,0,0,0,40.93-23q10.92-7.5,21-16a7.1,7.1,0,0,0,2.5-4.41Z"/><path class="cls-1" d="M900.26,105.61,902.17,92a5,5,0,0,0-5.11-5.94h-41.4A7.07,7.07,0,0,0,848.88,92L847,105.61a7.07,7.07,0,0,1-6.78,5.94H717.26a5,5,0,0,1-5.11-5.94L714.06,92A5,5,0,0,0,709,86.05H667.1A7.06,7.06,0,0,0,660.32,92l-1.92,13.62a7.06,7.06,0,0,1-6.78,5.94H580.16a7.07,7.07,0,0,0-6.78,6l-4.92,35a5.05,5.05,0,0,0,5.11,5.95H645a5,5,0,0,1,5.11,5.94l-1.66,11.8a5,5,0,0,0,5.11,5.94h41.86a7.07,7.07,0,0,0,6.78-5.94l1.66-11.8a7.06,7.06,0,0,1,6.78-5.94H833.6a5,5,0,0,1,5.11,5.94l-1.66,11.8a5,5,0,0,0,5.11,5.94h41.4a7.07,7.07,0,0,0,6.78-5.94l1.66-11.8a7.06,7.06,0,0,1,6.78-5.94h71.91a7.07,7.07,0,0,0,6.78-5.95l4.93-35a5.05,5.05,0,0,0-5.11-6H905.37A5,5,0,0,1,900.26,105.61Z"/><path class="cls-1" d="M846,208.11H810.43a7.26,7.26,0,0,0-7,6.11l-26.71,190a5.18,5.18,0,0,0,5.25,6.1h35.61a7.27,7.27,0,0,0,7-6.1l26.7-190A5.19,5.19,0,0,0,846,208.11Z"/><path class="cls-1" d="M877.39,430.38a19.75,19.75,0,0,1-7,12.76,20.64,20.64,0,0,1-13.69,5H809a7.25,7.25,0,0,0-6.95,6.09l-4.94,35.18a5.17,5.17,0,0,0,5.24,6.1h55.22c33.3,0,64.09-27,68.77-60.3l33.11-235.59a5.18,5.18,0,0,0-5.24-6.09H916.77a7.25,7.25,0,0,0-6.95,6.09Z"/><path class="cls-1" d="M170.35,526.77q-9.15,65.13-29.54,111.36-19.44,44.07-44.25,63.1a7.24,7.24,0,0,0-2.85,4.65l-8.49,60.44c-.69,4.92,4.49,7.79,8.88,4.9s8.46-5.76,12.38-8.75q4.18-3.18,8.22-6.63c4.36-3.72,10.4-1.1,9.65,4.25L100.83,927.47a5.12,5.12,0,0,0,5.19,6h39.85a7.18,7.18,0,0,0,6.88-6l33.69-239.68a5.24,5.24,0,0,0-5.3-6.16h0c-5.27.29-6.55-.51-3.59-6.48,10.31-20.83,19.94-42.86,27.54-66.63a504.88,504.88,0,0,0,18-78.4A5.13,5.13,0,0,0,218,524H170.74Z"/><path class="cls-1" d="M500.27,642.31l11-78.56c2.52-17.91-10-32.43-27.87-32.43H250a7.22,7.22,0,0,0-6.92,6.07l-5,35.69a5.16,5.16,0,0,0,5.22,6.07h80.78a5.15,5.15,0,0,1,5.22,6.06l-8,57.1a7.22,7.22,0,0,1-6.92,6.07H221.27a7.21,7.21,0,0,0-6.92,6.06l-5.21,37.06a5.16,5.16,0,0,0,5.22,6.07h93.08a5.14,5.14,0,0,1,5.21,6.06L305,758.46a7.21,7.21,0,0,1-6.92,6.06H217.24a7.21,7.21,0,0,0-6.91,6.07l-5.08,36.15a5.14,5.14,0,0,0,5.21,6.06H470.25a7.2,7.2,0,0,0,6.91-6.06l14.49-103.11a7.21,7.21,0,0,1,6.92-6.06h4.3a7.22,7.22,0,0,0,6.92-6.07L515,654.44a5.15,5.15,0,0,0-5.22-6.06h-4.29A5.16,5.16,0,0,1,500.27,642.31ZM426,764.52H366.18a5.14,5.14,0,0,1-5.21-6.06l7.71-54.83a7.2,7.2,0,0,1,6.91-6.06h59.84a5.14,5.14,0,0,1,5.21,6.06l-7.7,54.83A7.21,7.21,0,0,1,426,764.52Zm16.32-116.14H382.51a5.16,5.16,0,0,1-5.22-6.07l8-57.1a7.21,7.21,0,0,1,6.92-6.06h59.83a5.14,5.14,0,0,1,5.21,6.06l-8,57.1A7.22,7.22,0,0,1,442.34,648.38Z"/><path class="cls-1" d="M296.12,833.88c-9.42,43.29-52.82,48.26-95.09,48.64a7.52,7.52,0,0,0-7.29,6.12l-5.45,38.73c-.48,3.46,2.17,6.22,5.86,6.13,67.56-1.67,142.19-28.71,156.1-98.81.69-3.49-1.9-6.41-5.62-6.41H303.4A7.55,7.55,0,0,0,296.12,833.88Z"/><path class="cls-1" d="M585.68,885.39q-14.38,20.49-37.23,37.29c-5,3.64-3.45,10.82,2.29,10.82h45a6.89,6.89,0,0,0,4-1.3,200.75,200.75,0,0,0,26.56-22.61,196.31,196.31,0,0,0,15.67-18c3.14-4.07,1-9.39-3.82-9.39h-46.6A7.23,7.23,0,0,0,585.68,885.39Z"/><path class="cls-1" d="M890.86,882.2H847.55c-5.27,0-8.94,6.24-6,10.17l29.36,39.09a5.25,5.25,0,0,0,4.27,2H918.5c5.27,0,8.94-6.23,6-10.17l-29.36-39.08A5.26,5.26,0,0,0,890.86,882.2Z"/><path class="cls-1" d="M1245,881.81l3.4-24.14a7.3,7.3,0,0,1,7-6.15h130.26a7.32,7.32,0,0,0,7-6.15l4-28.24a5.22,5.22,0,0,0-5.29-6.15H1261.12a5.22,5.22,0,0,1-5.29-6.15l3.39-24.14a7.33,7.33,0,0,1,7-6.15h141.65a7.3,7.3,0,0,0,7-6.14l3.91-27.79a5.23,5.23,0,0,0-5.29-6.15H1271.87a5.21,5.21,0,0,1-5.28-6.15l1.08-7.75a5.22,5.22,0,0,0-5.28-6.15h-42.81a7.33,7.33,0,0,0-7,6.15l-1.09,7.75a7.3,7.3,0,0,1-7,6.15h-79.07c-4,0-6.36-3.66-5-7.5l.68-1.84c1.41-3.85-1-7.5-4.95-7.5h-38.08a7.36,7.36,0,0,0-6.77,5.1c-4.6,14.5-10.51,26.1-19.92,42.71a289.28,289.28,0,0,1-34.21,48.09c-3.56,4-1.44,9.76,3.59,9.76h19.53a5.22,5.22,0,0,1,5.28,6.15l-2.24,15.94a5.22,5.22,0,0,0,5.28,6.15H1188a5.22,5.22,0,0,1,5.28,6.15l-3.39,24.14a7.33,7.33,0,0,1-7,6.15H1017.55a7.32,7.32,0,0,0-7,6.15l-3.91,27.78a5.22,5.22,0,0,0,5.29,6.15H1397.7a7.32,7.32,0,0,0,7-6.15l3.9-27.78a5.22,5.22,0,0,0-5.28-6.15h-153A5.23,5.23,0,0,1,1245,881.81ZM1193.71,811H1084.9c-4.77,0-7-5.21-4-9.3s5.4-7.56,7.16-10.51q3.62-6.09,8.13-13.21a7.27,7.27,0,0,1,6-3.42h96.62a5.22,5.22,0,0,1,5.28,6.15l-3.39,24.14A7.32,7.32,0,0,1,1193.71,811Z"/><path class="cls-1" d="M1144,370.19l-3.33,114.45a5.14,5.14,0,0,0,5.29,5.41h27.88a7.21,7.21,0,0,0,7-6.72l4.15-114.44a5.14,5.14,0,0,0-5.29-5.46H1151A7.21,7.21,0,0,0,1144,370.19Z"/><path class="cls-1" d="M1003.67,436.08q-7.41,29.32-14.23,46.27c-1.57,3.9.87,7.7,4.9,7.7h27.35a7.36,7.36,0,0,0,6.71-4.81q7.08-19.49,14.89-49.16a622.1,622.1,0,0,0,13.41-66.43,5.26,5.26,0,0,0-5.31-6.22h-27.28a7.35,7.35,0,0,0-7,6.14Q1012.13,402.54,1003.67,436.08Z"/><path class="cls-1" d="M1079.46,350.48,1060,489.34a5.25,5.25,0,0,0,5.31,6.18h35.46a7.35,7.35,0,0,0,7-6.18l19.52-138.86a5.25,5.25,0,0,0-5.32-6.18h-35.46A7.35,7.35,0,0,0,1079.46,350.48Z"/><path class="cls-1" d="M1358.86,370.13l-4.56,114.45a5.14,5.14,0,0,0,5.29,5.47h28.28a7.2,7.2,0,0,0,7-6.72L1399,368.88a5.13,5.13,0,0,0-5.29-5.45h-27.87A7.2,7.2,0,0,0,1358.86,370.13Z"/><path class="cls-1" d="M1218,435.62q-7.29,29.94-14.33,46.72c-1.62,3.88.74,7.71,4.77,7.71h27.42a7.22,7.22,0,0,0,6.57-4.68q7-18.94,15.26-50.2a620.47,620.47,0,0,0,13.52-65.62,5.17,5.17,0,0,0-5.23-6.12h-27.93a7.21,7.21,0,0,0-6.91,6Q1226.39,401.31,1218,435.62Z"/><path class="cls-1" d="M1410.47,531.32H1081.25a7.21,7.21,0,0,0-6.91,6.06l-21.86,155.49a5.16,5.16,0,0,0,5.21,6.07h349.53a7.22,7.22,0,0,0,6.91-6.07l19-135.19C1435.18,543.12,1425,531.32,1410.47,531.32Zm-37.06,65.59-5.12,36.44L1365.11,656a7.2,7.2,0,0,1-6.91,6.06H1117.08a5.14,5.14,0,0,1-5.21-6.06l2.33-16.57a7.2,7.2,0,0,1,6.91-6.06h225.73a7.21,7.21,0,0,0,6.91-6.06l3.42-24.32a5.14,5.14,0,0,0-5.21-6.06H1126.23a5.15,5.15,0,0,1-5.21-6.06l2.41-17.14a7.21,7.21,0,0,1,6.92-6.06l241.1.11a5.14,5.14,0,0,1,5.21,6.06Z"/><path class="cls-1" d="M943.37,866.23l-24.12-96.16a5.07,5.07,0,0,0-5.08-3.84H873.91c-4.27,0-7.8,4.31-6.77,8.28l9.67,37.34,1.44,5.58c1,4-2.5,8.28-6.77,8.28H748.35c-5.73,0-7.22-7.23-2.22-10.78l79.35-56.25c5-3.55,3.52-10.79-2.22-10.79H776.65a6.76,6.76,0,0,0-3.77,1.2l-27.65,18.63a6.83,6.83,0,0,1-3.77,1.19h-68.4c-6.11,0-7.23-8-1.56-11.2l1.93-1.08c4.46-2.49,3.58-8.82-1.23-8.82H633a6.73,6.73,0,0,0-3.33.91l-37.5,21.55a7.18,7.18,0,0,0-3.56,5.12l-2.52,17.9a5.13,5.13,0,0,0,5.19,6h89.49c5.78,0,7.23,7.33,2.14,10.84l-20.78,14.31a6.84,6.84,0,0,1-3.84,1.23H548.85a7.19,7.19,0,0,0-6.89,6l-4.08,29.07a5.12,5.12,0,0,0,5.19,6h168.4v0L703,927.46a5.12,5.12,0,0,0,5.19,6h44.4a7.19,7.19,0,0,0,6.89-6L768,866.88v0H886.6a5.07,5.07,0,0,1,5.09,3.88h0a4.89,4.89,0,0,0,4.91,3.73h40C940.84,874.47,944.36,870.19,943.37,866.23Z"/><path class="cls-1" d="M1167.7,343.39h30.4a7.2,7.2,0,0,0,7-7.07L1203,235.56a5.14,5.14,0,0,0-5.3-5.13h-30.09a7.21,7.21,0,0,0-7,7l.32,38.37a7.19,7.19,0,0,1-7,7h-65.67c-5.31,0-7.2-6.31-3.07-10.22L1212.8,151.83c4.13-3.91,2.24-10.22-3.06-10.22h-40a7,7,0,0,0-4.69,1.9L1139.38,167a7,7,0,0,1-4.68,1.9h-36c-5.37,0-7.22-6.43-3-10.31l68.28-62.27c4.26-3.88,2.41-10.31-3-10.31h-41.84a7,7,0,0,0-4.72,1.93l-79.33,73.74a7.05,7.05,0,0,0-2.23,4.16l-6,43a5.17,5.17,0,0,0,5.24,6.1H1074c5.33,0,7.2,6.35,3,10.25l-60.3,56.24-.19,1.37-5.61,39.91a5.18,5.18,0,0,0,5.25,6.09h140.87a5.15,5.15,0,0,1,5.31,5.2l0,4.18A5.14,5.14,0,0,0,1167.7,343.39Z"/><path class="cls-1" d="M779.92,649.5h-2.75a5.35,5.35,0,0,1-5.38-6.45l3.28-19.67c2.41-14.48-7.82-26.42-22.64-26.42H638.49c-4.46,0-6.87-4.51-4.61-8.64l4.8-8.81a7.49,7.49,0,0,1,6.38-3.93H779.38a7.48,7.48,0,0,0,7.17-6.28L790.1,544a5.33,5.33,0,0,0-5.4-6.28H662.19c-3.81,0-6-3.33-5.24-7.13a5.36,5.36,0,0,0-5.33-6.68H615.37a7.54,7.54,0,0,0-7,5.51,299.52,299.52,0,0,1-15,41.91,204.9,204.9,0,0,1-16,29.83c-2.76,4.17-.4,9.13,4.3,9.13h3.59a5.35,5.35,0,0,1,5.36,6.5L586,643.43a7.47,7.47,0,0,1-7.13,6.07h-5a7.46,7.46,0,0,0-7.16,6.28l-2.37,16.82a5.33,5.33,0,0,0,5.4,6.28h2.13a5.4,5.4,0,0,1,5.23,7.09q-5.87,22.11-11.89,38.74c-1.42,3.91,1.07,7.6,5.07,7.6H761.83A7.47,7.47,0,0,0,769,726l2.36-16.82a5.32,5.32,0,0,0-5.39-6.28h-1.7a3.83,3.83,0,0,1-3.79-4.82h0l3.13-13.52a7.27,7.27,0,0,1,6.89-5.72h5.3A7.48,7.48,0,0,0,783,672.6l2.36-16.82A5.33,5.33,0,0,0,779.92,649.5ZM645.84,701.59H620.42a5.37,5.37,0,0,1-5.3-6.84l3-12.82a7.48,7.48,0,0,1,7.06-5.72h19.57a5.07,5.07,0,0,1,5.11,4s1.58,7.22,2.89,13.27C653.57,697.42,650.05,701.59,645.84,701.59Zm9-49.87H631.17a5.35,5.35,0,0,1-5.37-6.5l2.27-12.82a7.47,7.47,0,0,1,7.12-6.06h18.36a5.12,5.12,0,0,1,5.15,4l3,13.23C662.55,647.53,659,651.72,654.81,651.72Zm67.46,37.85c-.65,2.35-1.29,4.59-1.9,6.69a7.49,7.49,0,0,1-7,5.33H694a5.1,5.1,0,0,1-5.16-4c-1.12-5.1-2.88-13.24-2.88-13.24-.85-4,2.68-8.12,6.88-8.12h25.77a5.33,5.33,0,0,1,5.35,6.61C723.44,685.07,722.9,687.32,722.27,689.57Zm9-44a7.47,7.47,0,0,1-7.14,6.17H702.82a5.1,5.1,0,0,1-5.16-4c-1.12-5.1-2.88-13.26-2.88-13.26-.84-4,2.67-8.1,6.86-8.1H728a5.33,5.33,0,0,1,5.38,6.4Z"/></svg>