<?xml version="1.0" encoding="utf-8"?>
<!-- Generator: Adobe Illustrator 23.0.2, SVG Export Plug-In . SVG Version: 6.00 Build 0)  -->
<svg version="1.1" id="圖層_1" xmlns="http://www.w3.org/2000/svg" xmlns:xlink="http://www.w3.org/1999/xlink" x="0px" y="0px"
	 viewBox="0 0 1518.6 1019.5" style="enable-background:new 0 0 1518.6 1019.5;" xml:space="preserve">
<style type="text/css">
	.st0{fill:none;stroke:#FFFFFF;stroke-width:3;stroke-miterlimit:10;}
</style>
<title>logotype</title>
<path class="st0" d="M1410.6,230.4h-30.1c-3.8,0.1-6.9,3.2-7,7l0.3,38.3c-0.1,3.8-3.2,6.9-7,7h-65.6c-5.3,0-7.2-6.3-3.1-10.3
	l127.5-120.7c4.2-3.9,2.3-10.3-3.1-10.3h-40c-1.8,0-3.4,0.7-4.7,1.9l-25.7,23.5c-1.3,1.2-3,1.9-4.7,1.9h-35.9c-5.4,0-7.2-6.4-3-10.3
	l68.3-62.2c4.3-3.9,2.4-10.3-3-10.3H1332c-1.8,0-3.5,0.7-4.7,1.9l-79.3,73.7c-1.2,1.1-2,2.6-2.2,4.2l-6,42.9c-0.5,2.8,1.4,5.5,4.2,6
	c0.4,0.1,0.7,0.1,1.1,0.1h41.8c5.3,0,7.2,6.4,3,10.3l-60.3,56.2l-0.2,1.4l-5.6,39.9c-0.5,2.8,1.4,5.5,4.2,6c0.4,0.1,0.7,0.1,1.1,0.1
	h67.3l-22.6,160.6c-0.5,2.8,1.4,5.5,4.2,6c0.4,0.1,0.7,0.1,1.1,0.1h35.6c3.5-0.1,6.4-2.7,7-6.1l21.7-154.5c0.6-3.5,3.5-6,7-6.1h19.5
	c2.8-0.1,5.2,2.1,5.3,5c0,0.1,0,0.1,0,0.2v4.1c0,2.8,2.2,5.2,5.1,5.2c0.1,0,0.1,0,0.2,0h30.4c3.8-0.1,6.9-3.2,7-7.1l-2-100.7
	c0-2.8-2.3-5.2-5.2-5.1C1410.8,230.4,1410.7,230.4,1410.6,230.4z"/>
<path class="st0" d="M441.6,350.5c0.5-2.6-1.1-5.2-3.7-5.9c-31.9-8.6-46.9-14.5-64.5-22c-11-4.7-36.5-19.1-54.5-29.5
	c-5.1-3-1.8-11.4,4.5-11.4h170.3c3.5-0.1,6.4-2.6,6.9-6.1l5.6-40.1c0.5-2.8-1.3-5.5-4.1-6c-0.4-0.1-0.7-0.1-1.1-0.1H312.6
	c-2.8,0.1-5.2-2.2-5.3-5c0-0.4,0-0.7,0.1-1.1L312,191c0.5-3.4,3.5-6,6.9-6.1h140c3.5-0.1,6.4-2.6,6.9-6.1l5.6-40.1
	c0.5-2.8-1.4-5.5-4.2-6c-0.3-0.1-0.7-0.1-1.1-0.1h-140c-2.8,0.1-5.2-2.2-5.3-5c0-0.4,0-0.7,0.1-1.1l4.5-31.8c0.5-2.8-1.3-5.5-4.1-6
	c-0.4-0.1-0.7-0.1-1.1-0.1H277c-3.5,0.1-6.4,2.6-6.9,6.1L252,223.4c-0.6,3.4-3.5,6-6.9,6.1H97.8c-3.5,0.1-6.4,2.6-6.9,6.1l-5.6,40.1
	c-0.5,2.8,1.3,5.5,4.1,6c0.4,0.1,0.7,0.1,1.1,0.1h147.3c2.8-0.1,5.2,2.2,5.3,5c0,0.4,0,0.7-0.1,1.1l-28,199c-0.5,2.8,1.3,5.5,4.1,6
	c0.4,0.1,0.7,0.1,1.1,0.1h43.2c3.5-0.1,6.4-2.6,6.9-6.1l18.9-134.4c0.6-4.7,6.1-7.6,9.8-5.3c39.5,24.7,86.7,43.9,127.7,54.1
	c3.7,0.9,7.7-2,8.3-5.9L441.6,350.5z"/>
<path class="st0" d="M829.2,681.5c-12.3,3.7-24.9,6.3-37.7,7.7c-3.2,0.4-5.7,2.9-6.2,6l-4.2,30.5c-0.5,2.8,1.4,5.6,4.3,6.1
	c0.6,0.1,1.1,0.1,1.7,0c14.5-1.4,28.8-4.1,42.8-8.1c13.9-3.9,27.4-8.9,40.5-15.1c1.8-0.9,3.9-0.9,5.7,0.1
	c12.3,7.2,25.5,12.9,39.2,16.9c14.1,4.1,28.8,6.3,43.5,6.7c3.6,0,6.6-2.6,7.2-6.1l4.5-32.2c0.5-2.8-1.4-5.5-4.2-6
	c-0.3-0.1-0.6-0.1-0.9-0.1c-7.8-0.2-15.6-1-23.3-2.5c-5.5-1.1-11-2.5-16.6-4.2c-4.1-1.2-5-6.4-1.7-9.8c10.6-10.8,20-22.9,27.8-35.9
	c8.6-14.3,15.4-29.6,20.4-45.5c0.9-3,3.6-5,6.7-5.1h1c3.5-0.1,6.4-2.6,7-6.1l4.2-29.5c0.5-2.8-1.4-5.5-4.2-6
	c-0.4-0.1-0.7-0.1-1.1-0.1h-94c-2.9,0.1-5.3-2.2-5.4-5.1c0-0.6,0.1-1.3,0.3-1.9l1.4-4.7c1-2.7-0.5-5.7-3.2-6.7
	c-0.6-0.2-1.2-0.3-1.9-0.3H847c-3.3,0.1-6.2,2.5-6.9,5.7c-2.5,12.1-7.5,23.6-14.8,33.6c-7.5,10.5-16.5,18.1-26.8,22.7
	c-2.3,1-3.9,3.1-4.3,5.5l-5.4,38.1c-0.6,4.5,3.6,7.4,7.9,5.5c3.4-1.5,6.8-3.1,10.3-4.8c3.3-1.7,7-0.4,8,2.9
	c4.2,13.5,10.3,26.4,18.3,38.1C835.7,675.2,833.5,680.2,829.2,681.5z M865.6,585h56.9c3.9,0,6.4,3.7,4.9,7.5
	c-4.3,11.4-10,22.3-17,32.3c-7.5,10.7-16.5,20.3-26.7,28.4c-2.6,2.1-6.2,2.2-8.3,0c-8.6-9-14.7-20.3-18.4-34.1
	c-0.6-2.2-2.7-3.8-5-3.7h-4.6c-15.4-0.3-14.2,1.9-3.1-10.2c5-5.5,10.8-11.1,15.8-17.4C861.4,586.1,863.4,585.1,865.6,585z"/>
<path class="st0" d="M686.7,405.6l48.5,35.8c3.7,2.7,9.5-0.2,10.2-5.1l5.7-40.4c0.3-2-0.5-4-2.1-5.1l-48.7-34
	c-3.7-2.6-9.4,0.3-10.1,5.1l-5.4,38.5C684.4,402.4,685.1,404.4,686.7,405.6z"/>
<path class="st0" d="M696.1,248.5c25.8-3.1,46.8-7.7,63.2-13.7c2.5-0.9,4.3-3.1,4.7-5.7l4.7-33.5c0.6-4.2-3.2-7.1-7.3-5.7
	c-18.5,6.3-41.7,11.2-69.8,14.6c-31.4,3.8-73.1,5.8-125.2,5.9c-3.5,0.1-6.4,2.7-6.9,6.1l-4.5,31.9c-0.5,2.8,1.4,5.5,4.2,6
	c0.4,0.1,0.8,0.1,1.2,0.1l70.2-1.5c2.9-0.2,5.3,2,5.4,4.9c0,0.4,0,0.8-0.1,1.2l-3,21.4c-0.6,3.4-3.5,6-6.9,6.1h-70.3
	c-3.5,0.1-6.4,2.7-6.9,6.1l-4.8,33.8c-0.5,2.8,1.3,5.5,4.1,6c0.4,0.1,0.7,0.1,1.1,0.1h76.4l-11.3,80.2l-5.8,41.5l-5,35.4
	c-0.5,2.8,1.4,5.5,4.2,6c0.4,0.1,0.7,0.1,1.1,0.1H650c3.5-0.1,6.4-2.7,6.9-6.1l5-35.4l0,0L679,332.7h75c3.5-0.1,6.4-2.7,6.9-6.1
	l4.8-33.8c0.5-2.8-1.4-5.5-4.2-6c-0.4-0.1-0.7-0.1-1.1-0.1h-69c-2.8,0.1-5.2-2.2-5.3-5c0-0.4,0-0.7,0.1-1.1l3.6-25.9
	C690.4,251.4,692.9,248.9,696.1,248.5z"/>
<path class="st0" d="M603.9,377.5c0.8-5.6-5.8-8.3-10-4c-2.1,2.1-4.3,4.1-6.5,6.1c-15.2,13.5-32.7,24.3-51.6,31.9
	c-2.4,1-4.1,3.1-4.5,5.6l-6.7,47.4c-0.6,4.5,3.7,7.5,8,5.5c14.3-6.5,28-14.2,40.9-23c7.3-5,14.3-10.3,21-16c1.3-1.1,2.2-2.7,2.5-4.4
	L603.9,377.5z"/>
<path class="st0" d="M900.3,105.6l1.9-13.6c0.5-2.7-1.3-5.3-4-5.9c-0.4-0.1-0.8-0.1-1.1-0.1h-41.4c-3.4,0.1-6.2,2.6-6.8,5.9
	l-1.9,13.6c-0.5,3.4-3.4,5.8-6.8,5.9h-123c-2.8,0.1-5.1-2-5.2-4.8c0-0.4,0-0.8,0.1-1.1l1.9-13.6c0.5-2.7-1.2-5.3-4-5.9
	c-0.4-0.1-0.7-0.1-1.1-0.1H667c-3.4,0.1-6.2,2.6-6.8,5.9l-1.9,13.6c-0.5,3.4-3.4,5.8-6.8,5.9H580c-3.4,0.1-6.3,2.6-6.8,6l-4.9,35
	c-0.5,2.7,1.3,5.4,4.1,5.9c0.3,0.1,0.7,0.1,1,0.1H645c2.8-0.1,5.1,2,5.2,4.8c0,0.4,0,0.8-0.1,1.1l-1.7,11.8c-0.5,2.7,1.3,5.3,4,5.9
	c0.4,0.1,0.8,0.1,1.1,0.1h41.9c3.4-0.1,6.2-2.6,6.8-5.9l1.7-11.8c0.5-3.4,3.4-5.8,6.8-5.9h123c2.8-0.1,5.1,2,5.2,4.8
	c0,0.4,0,0.8-0.1,1.1l-1.7,11.8c-0.5,2.7,1.3,5.3,4,5.9c0.4,0.1,0.8,0.1,1.1,0.1h41.4c3.4-0.1,6.2-2.6,6.8-5.9l1.7-11.8
	c0.5-3.4,3.4-5.8,6.8-5.9h71.9c3.4-0.1,6.2-2.6,6.8-5.9l4.9-35c0.5-2.7-1.3-5.4-4-5.9c-0.4-0.1-0.7-0.1-1.1-0.1h-71.9
	c-2.8,0.1-5.1-2-5.2-4.8C900.2,106.4,900.2,106,900.3,105.6z"/>
<path class="st0" d="M846,208.1h-35.6c-3.5,0.1-6.4,2.7-7,6.1l-26.7,190c-0.5,2.8,1.4,5.5,4.2,6c0.4,0.1,0.7,0.1,1.1,0.1h35.6
	c3.5-0.1,6.4-2.6,7-6.1l26.7-190c0.5-2.8-1.4-5.5-4.2-6C846.7,208.1,846.4,208.1,846,208.1z"/>
<path class="st0" d="M877.4,430.4c-0.6,5-3.1,9.6-7,12.8c-3.8,3.3-8.7,5.1-13.7,5H809c-3.5,0.1-6.4,2.7-7,6.1l-4.9,35.2
	c-0.5,2.8,1.3,5.5,4.2,6c0.4,0.1,0.7,0.1,1.1,0.1h55.2c33.3,0,64.1-27,68.8-60.3l33.1-235.6c0.5-2.8-1.4-5.5-4.2-6
	c-0.3-0.1-0.7-0.1-1.1-0.1h-37.4c-3.5,0.1-6.4,2.7-7,6.1L877.4,430.4z"/>
<path class="st0" d="M170.4,526.8c-6.1,43.4-15.9,80.5-29.5,111.4c-13,29.4-27.7,50.4-44.3,63.1c-1.5,1.1-2.5,2.8-2.8,4.7l-8.5,60.4
	c-0.7,4.9,4.5,7.8,8.9,4.9s8.5-5.8,12.4-8.8c2.8-2.1,5.5-4.3,8.2-6.6c4.4-3.7,10.4-1.1,9.7,4.3L101,927.6c-0.5,2.8,1.4,5.4,4.2,5.9
	c0.3,0.1,0.7,0.1,1,0.1H146c3.4-0.1,6.3-2.6,6.9-6l33.7-239.7c0.5-2.8-1.4-5.6-4.2-6.1c-0.4-0.1-0.7-0.1-1.1-0.1l0,0
	c-5.3,0.3-6.6-0.5-3.6-6.5c10.3-20.8,19.9-42.9,27.5-66.6c8.1-25.6,14.1-51.8,18-78.4c0.5-2.8-1.3-5.5-4-6c-0.3-0.1-0.7-0.1-1-0.1
	h-47.3L170.4,526.8z"/>
<path class="st0" d="M500.3,642.3l11-78.6c2.5-17.9-10-32.4-27.9-32.4H250c-3.5,0.1-6.4,2.6-6.9,6.1l-5,35.7c-0.5,2.8,1.4,5.5,4.2,6
	c0.3,0.1,0.7,0.1,1.1,0.1h80.8c2.8-0.1,5.2,2.2,5.3,5c0,0.4,0,0.7-0.1,1.1l-8,57.1c-0.6,3.4-3.5,6-6.9,6.1h-93.1
	c-3.5,0.1-6.4,2.6-6.9,6.1l-5.2,37.1c-0.5,2.8,1.4,5.5,4.2,6c0.3,0.1,0.7,0.1,1.1,0.1h93.1c2.8-0.1,5.2,2.1,5.3,5
	c0,0.4,0,0.7-0.1,1.1l-7.6,54.8c-0.6,3.4-3.5,6-6.9,6.1h-80.8c-3.5,0.1-6.4,2.6-6.9,6.1l-5.1,36.2c-0.5,2.8,1.3,5.5,4.1,6
	c0.4,0.1,0.7,0.1,1.1,0.1h259.8c3.5-0.1,6.4-2.6,6.9-6.1L492,704c0.6-3.4,3.5-6,6.9-6.1h4.3c3.5-0.1,6.4-2.6,6.9-6.1l5.2-37.1
	c0.5-2.8-1.4-5.5-4.2-6c-0.4-0.1-0.7-0.1-1.1-0.1h-4.3c-2.8,0.1-5.2-2.2-5.3-5C500.2,643,500.2,642.7,500.3,642.3z M426,764.5h-59.8
	c-2.8,0.1-5.2-2.1-5.3-5c0-0.4,0-0.7,0.1-1.1l7.7-54.8c0.5-3.4,3.4-6,6.9-6.1h59.8c2.8-0.1,5.2,2.1,5.3,5c0,0.4,0,0.7-0.1,1.1
	l-7.7,54.8C432.4,761.9,429.5,764.4,426,764.5z M442.3,648.4h-59.8c-2.8,0.1-5.2-2.2-5.3-5c0-0.4,0-0.7,0.1-1.1l8-57.1
	c0.6-3.4,3.5-6,6.9-6.1H452c2.8-0.1,5.2,2.1,5.3,5c0,0.4,0,0.7-0.1,1.1l-8,57.1C448.7,645.7,445.8,648.3,442.3,648.4L442.3,648.4z"
	/>
<path class="st0" d="M296.1,833.9c-9.4,43.3-52.8,48.3-95.1,48.6c-3.6,0-6.6,2.6-7.3,6.1l-5.4,38.7c-0.5,3.5,2.2,6.2,5.9,6.1
	c67.6-1.7,142.2-28.7,156.1-98.8c0.7-3.5-1.9-6.4-5.6-6.4h-41.2C300,828.3,297,830.6,296.1,833.9z"/>
<path class="st0" d="M585.7,885.4c-9.6,13.7-22,26.1-37.2,37.3c-5,3.6-3.5,10.8,2.3,10.8h45c1.4,0,2.8-0.5,4-1.3
	c9.5-6.8,18.4-14.3,26.6-22.6c5.6-5.7,10.8-11.7,15.7-18c3.1-4.1,1-9.4-3.8-9.4h-46.6C589.2,882.2,587,883.4,585.7,885.4z"/>
<path class="st0" d="M890.9,882.2h-43.3c-5.3,0-8.9,6.2-6,10.2l29.4,39.1c1,1.3,2.6,2,4.3,2h43.3c5.3,0,8.9-6.2,6-10.2l-29.4-39.1
	C894.1,882.9,892.5,882.2,890.9,882.2z"/>
<path class="st0" d="M1245,881.8l3.4-24.1c0.6-3.5,3.5-6,7-6.2h130.3c3.5-0.1,6.4-2.7,7-6.2l4-28.2c0.5-2.8-1.4-5.6-4.2-6.1
	c-0.4-0.1-0.7-0.1-1.1-0.1h-130.3c-2.9,0.1-5.3-2.2-5.4-5.1c0-0.4,0-0.7,0.1-1.1l3.4-24.1c0.6-3.5,3.5-6,7-6.2h141.7
	c3.5-0.1,6.4-2.7,7-6.1l3.9-27.8c0.5-2.8-1.4-5.6-4.2-6.1c-0.4-0.1-0.7-0.1-1.1-0.1h-141.6c-2.9,0.1-5.3-2.2-5.4-5.1
	c0-0.4,0-0.7,0.1-1.1l1.1-7.8c0.5-2.8-1.4-5.6-4.2-6.1c-0.4-0.1-0.7-0.1-1.1-0.1h-42.8c-3.5,0.1-6.4,2.7-7,6.2l-1.1,7.8
	c-0.6,3.5-3.5,6-7,6.2h-79.1c-4,0-6.4-3.7-5-7.5l0.7-1.8c1.4-3.8-1-7.5-4.9-7.5h-38.1c-3.1,0.1-5.8,2.1-6.8,5.1
	c-4.6,14.5-10.5,26.1-19.9,42.7c-9.7,17.2-21.2,33.3-34.2,48.1c-3.6,4-1.4,9.8,3.6,9.8h19.5c2.9-0.1,5.3,2.2,5.4,5.1
	c0,0.4,0,0.7-0.1,1.1l-2.2,15.9c-0.5,2.8,1.4,5.6,4.2,6.1c0.4,0.1,0.7,0.1,1.1,0.1H1188c2.9-0.1,5.3,2.2,5.4,5.1
	c0,0.4,0,0.7-0.1,1.1l-3.4,24.1c-0.6,3.5-3.5,6-7,6.2h-165.3c-3.5,0.1-6.4,2.7-7,6.2l-3.9,27.8c-0.5,2.8,1.4,5.6,4.2,6.1
	c0.4,0.1,0.7,0.1,1.1,0.1h385.8c3.5-0.1,6.4-2.7,7-6.2l3.9-27.8c0.5-2.8-1.4-5.6-4.2-6.1c-0.4-0.1-0.7-0.1-1.1-0.1h-153
	c-2.9,0.1-5.3-2.2-5.4-5.1C1244.9,882.5,1244.9,882.2,1245,881.8z M1193.7,811h-108.8c-4.8,0-7-5.2-4-9.3s5.4-7.6,7.2-10.5
	c2.4-4.1,5.1-8.5,8.1-13.2c1.3-2.1,3.6-3.4,6-3.4h96.6c2.9-0.1,5.3,2.2,5.4,5.1c0,0.4,0,0.7-0.1,1.1l-3.4,24.1
	C1200.1,808.3,1197.2,810.9,1193.7,811z"/>
<path class="st0" d="M1144,370.2l-3.3,114.5c-0.2,2.8,2,5.3,4.9,5.4c0.1,0,0.3,0,0.4,0h27.9c3.7-0.1,6.7-3,7-6.7l4.2-114.4
	c0.2-2.8-2-5.3-4.8-5.5c-0.2,0-0.3,0-0.5,0H1151C1147.3,363.5,1144.2,366.5,1144,370.2z"/>
<path class="st0" d="M1003.7,436.1c-4.9,19.5-9.7,35-14.2,46.3c-1.6,3.9,0.9,7.7,4.9,7.7h27.3c3-0.1,5.7-2,6.7-4.8
	c4.7-13,9.7-29.4,14.9-49.2c5.7-21.9,10.2-44.1,13.4-66.4c0.5-2.9-1.4-5.6-4.2-6.1c-0.4-0.1-0.7-0.1-1.1-0.1h-27.3
	c-3.5,0.1-6.4,2.7-7,6.1C1013.8,391.6,1009.3,413.7,1003.7,436.1z"/>
<path class="st0" d="M1079.5,350.5L1060,489.3c-0.5,2.9,1.4,5.6,4.2,6.1c0.4,0.1,0.7,0.1,1.1,0.1h35.5c3.5-0.1,6.4-2.7,7-6.2
	l19.5-138.9c0.5-2.9-1.4-5.6-4.2-6.1c-0.4-0.1-0.7-0.1-1.1-0.1h-35.5C1083,344.4,1080,347,1079.5,350.5z"/>
<path class="st0" d="M1358.9,370.1l-4.6,114.5c-0.2,2.8,2,5.3,4.8,5.5c0.2,0,0.3,0,0.5,0h28.3c3.7-0.1,6.8-3,7-6.7l4.1-114.5
	c0.2-2.8-2-5.3-4.8-5.4c-0.2,0-0.3,0-0.5,0h-27.9C1362.1,363.5,1359.1,366.4,1358.9,370.1z"/>
<path class="st0" d="M1218,435.6c-4.9,20-9.6,35.5-14.3,46.7c-1.6,3.9,0.7,7.7,4.8,7.7h27.4c2.9-0.1,5.5-1.9,6.6-4.7
	c4.7-12.6,9.8-29.4,15.3-50.2c5.7-21.6,10.2-43.5,13.5-65.6c0.5-2.8-1.3-5.5-4.1-6c-0.4-0.1-0.7-0.1-1.1-0.1h-27.9
	c-3.4,0.1-6.3,2.6-6.9,6C1228,390.7,1223.6,412.7,1218,435.6z"/>
<path class="st0" d="M1410.5,531.3h-329.2c-3.5,0.1-6.4,2.6-6.9,6.1l-21.9,155.5c-0.5,2.8,1.4,5.5,4.2,6c0.3,0.1,0.7,0.1,1,0.1
	h349.5c3.5-0.1,6.4-2.7,6.9-6.1l19-135.2C1435.2,543.1,1425,531.3,1410.5,531.3z M1373.4,596.9l-5.1,36.4l-3.2,22.6
	c-0.5,3.4-3.4,6-6.9,6.1h-241.1c-2.8,0.1-5.2-2.1-5.3-5c0-0.4,0-0.7,0.1-1.1l2.3-16.6c0.5-3.4,3.4-6,6.9-6.1h225.7
	c3.5-0.1,6.4-2.6,6.9-6.1l3.4-24.3c0.5-2.8-1.3-5.5-4.1-6c-0.4-0.1-0.7-0.1-1.1-0.1h-225.7c-2.8,0.1-5.2-2.2-5.3-5
	c0-0.4,0-0.7,0.1-1.1l2.4-17.1c0.6-3.4,3.5-6,6.9-6.1l241.1,0.1c2.8-0.1,5.2,2.1,5.3,5c0,0.4,0,0.7-0.1,1.1L1373.4,596.9z"/>
<path class="st0" d="M943.4,866.2L919.3,770c-0.6-2.3-2.7-3.9-5.1-3.8h-40.3c-4.3,0-7.8,4.3-6.8,8.3l9.7,37.3l1.4,5.6
	c1,4-2.5,8.3-6.8,8.3H748.3c-5.7,0-7.2-7.2-2.2-10.8l79.3-56.3c5-3.5,3.5-10.8-2.2-10.8h-46.6c-1.3,0-2.7,0.4-3.8,1.2l-27.7,18.6
	c-1.1,0.8-2.4,1.2-3.8,1.2h-68.4c-6.1,0-7.2-8-1.6-11.2l1.9-1.1c4.5-2.5,3.6-8.8-1.2-8.8h-39c-1.2,0-2.3,0.3-3.3,0.9l-37.5,21.5
	c-1.9,1.1-3.2,3-3.6,5.1l-2.5,17.9c-0.5,2.8,1.4,5.4,4.2,5.9c0.3,0.1,0.7,0.1,1,0.1h89.5c5.8,0,7.2,7.3,2.1,10.8l-20.8,14.3
	c-1.1,0.8-2.5,1.2-3.8,1.2H548.8c-3.4,0.1-6.3,2.6-6.9,6l-4.1,29.1c-0.5,2.8,1.4,5.4,4.2,5.9c0.3,0.1,0.7,0.1,1,0.1h168.4l0,0
	l-8.5,60.7c-0.5,2.8,1.4,5.4,4.2,5.9c0.3,0.1,0.7,0.1,1,0.1h44.4c3.4-0.1,6.3-2.6,6.9-6l8.5-60.6l0,0h118.6c2.4-0.1,4.5,1.5,5.1,3.9
	l0,0c0.5,2.2,2.6,3.8,4.9,3.7h40C940.8,874.5,944.4,870.2,943.4,866.2z"/>
<path class="st0" d="M1167.7,343.4h30.4c3.8-0.1,6.9-3.2,7-7.1l-2.1-100.8c0-2.8-2.3-5.1-5.1-5.1c-0.1,0-0.1,0-0.2,0h-30.1
	c-3.8,0.1-6.9,3.2-7,7l0.3,38.4c-0.1,3.8-3.2,6.9-7,7h-65.7c-5.3,0-7.2-6.3-3.1-10.2l127.6-120.7c4.1-3.9,2.2-10.2-3.1-10.2h-40
	c-1.7,0-3.4,0.7-4.7,1.9l-25.7,23.5c-1.3,1.2-2.9,1.9-4.7,1.9h-36c-5.4,0-7.2-6.4-3-10.3l68.3-62.3c4.3-3.9,2.4-10.3-3-10.3H1119
	c-1.8,0-3.4,0.7-4.7,1.9l-79.3,73.7c-1.2,1.1-2,2.6-2.2,4.2l-6,43c-0.5,2.8,1.3,5.5,4.2,6c0.4,0.1,0.7,0.1,1.1,0.1h41.9
	c5.3,0,7.2,6.4,3,10.3l-60.3,56.2l-0.2,1.4l-5.6,39.9c-0.5,2.8,1.4,5.5,4.2,6c0.4,0.1,0.7,0.1,1.1,0.1H1157c2.8-0.1,5.2,2.1,5.3,5
	c0,0.1,0,0.1,0,0.2v4.2c0,2.8,2.2,5.2,5.1,5.2C1167.5,343.4,1167.6,343.4,1167.7,343.4z"/>
<path class="st0" d="M779.9,649.5h-2.8c-3,0.1-5.4-2.2-5.5-5.2c0-0.4,0-0.8,0.1-1.2l3.3-19.7c2.4-14.5-7.8-26.4-22.6-26.4H638.5
	c-4.5,0-6.9-4.5-4.6-8.6l4.8-8.8c1.3-2.4,3.7-3.9,6.4-3.9h134.3c3.6-0.1,6.6-2.7,7.2-6.3l3.5-25.3c0.5-2.9-1.4-5.7-4.3-6.2
	c-0.4-0.1-0.7-0.1-1.1-0.1H662.2c-3.8,0-6-3.3-5.2-7.1c0.7-2.9-1-5.8-3.9-6.5c-0.5-0.1-1-0.2-1.5-0.2h-36.3c-3.3,0.1-6.1,2.3-7,5.5
	c-4,14.3-9,28.3-15,41.9c-4.5,10.4-9.9,20.3-16,29.8c-2.8,4.2-0.4,9.1,4.3,9.1h3.6c3-0.1,5.4,2.3,5.5,5.2c0,0.4,0,0.9-0.1,1.3
	l-4.6,26.6c-0.7,3.4-3.6,6-7.1,6.1h-5c-3.6,0.1-6.6,2.7-7.2,6.3l-2.4,16.8c-0.5,2.9,1.4,5.7,4.3,6.2c0.4,0.1,0.7,0.1,1.1,0.1h2.1
	c3-0.1,5.4,2.3,5.5,5.3c0,0.6-0.1,1.2-0.3,1.8c-3.9,14.7-7.9,27.7-11.9,38.7c-1.4,3.9,1.1,7.6,5.1,7.6h191.5
	c3.6-0.1,6.6-2.8,7.2-6.3l2.4-16.8c0.5-2.9-1.4-5.7-4.3-6.2c-0.4-0.1-0.7-0.1-1.1-0.1h-1.7c-2.1,0-3.9-1.6-3.9-3.7
	c0-0.4,0-0.7,0.1-1.1l0,0l3.1-13.5c0.7-3.3,3.6-5.6,6.9-5.7h5.3c3.6-0.1,6.6-2.7,7.2-6.2l2.4-16.8c0.5-2.9-1.4-5.7-4.3-6.2
	C780.7,649.5,780.3,649.5,779.9,649.5z M645.8,701.6h-25.4c-3,0.1-5.4-2.3-5.5-5.2c0-0.5,0.1-1.1,0.2-1.6l3-12.8
	c0.8-3.3,3.7-5.6,7.1-5.7h19.6c2.4-0.1,4.6,1.6,5.1,4c0,0,1.6,7.2,2.9,13.3C653.6,697.4,650,701.6,645.8,701.6z M654.8,651.7h-23.7
	c-3,0.1-5.4-2.2-5.5-5.2c0-0.4,0-0.9,0.1-1.3l2.3-12.8c0.7-3.4,3.6-6,7.1-6.1h18.4c2.5-0.1,4.6,1.6,5.2,4l3,13.2
	C662.5,647.5,659,651.7,654.8,651.7L654.8,651.7z M722.3,689.6c-0.7,2.3-1.3,4.6-1.9,6.7c-0.9,3.1-3.8,5.3-7,5.3H694
	c-2.5,0.1-4.6-1.6-5.2-4c-1.1-5.1-2.9-13.2-2.9-13.2c-0.8-4,2.7-8.1,6.9-8.1h25.8c2.9-0.1,5.4,2.2,5.5,5.2c0,0.5,0,1-0.2,1.5
	C723.4,685.1,722.9,687.3,722.3,689.6L722.3,689.6z M731.3,645.6c-0.6,3.5-3.6,6.1-7.1,6.2h-21.3c-2.5,0.1-4.6-1.6-5.2-4
	c-1.1-5.1-2.9-13.3-2.9-13.3c-0.8-4,2.7-8.1,6.9-8.1H728c2.9-0.1,5.4,2.2,5.5,5.2c0,0.4,0,0.8-0.1,1.2L731.3,645.6z"/>
</svg>
