<?xml version="1.0" encoding="utf-8"?>
<!-- Generator: Adobe Illustrator 23.0.2, SVG Export Plug-In . SVG Version: 6.00 Build 0)  -->
<svg version="1.1" id="圖層_1" xmlns="http://www.w3.org/2000/svg" xmlns:xlink="http://www.w3.org/1999/xlink" x="0px" y="0px"
	 viewBox="0 0 120 124.8" style="enable-background:new 0 0 120 124.8;" xml:space="preserve">
<path d="M89.4,60.9l-2.3-1c-1.1-0.4-2-0.7-2.9-0.7c-1.6,0-2.9,1.2-5,5.2c-0.5,1.1-0.8,2.2-0.8,3c0,2.7,2.7,4.1,5.2,4.9
	c4.6,1.9,6.9,6.4,7.1,11.2c0,12.9-13.2,13.3-16.1,13.3H74c-1.2,0-2.5-0.1-3.7-0.3c-0.4,0-0.7,0-1-0.1c1-4,1-8.4,1-13.3
	c0-12.5,0-23-15.1-26.4c9.8-2.5,11.2-8.4,11.2-17c0-2.4-1.1-28.1-4.4-28.9h-0.5c-2.6,0-6.8,4.6-10.4,9.9c-2.5-0.3-5.4-0.4-8.7-0.4
	c-3.4,0-6.3,0.1-8.7,0.4c-3.5-5.3-8-9.9-10.5-9.9c-3.8,0.8-4.8,26.4-4.8,28.9c0,8.9,1.2,14.7,11.4,17c-14.7,3.5-14.7,14-14.7,26.4
	c0,15.3,0,27.7,27.5,27.7c8.6,0,14.6-1.2,18.7-3.4c3.8,1.6,8.2,2.3,12.4,2.3h1.1c8.4,0,28.7-4.1,28.7-26.4
	C103.6,68.1,91.5,61.8,89.4,60.9z M31.4,46.1c-3.8,0-3.8-1.6-3.8-3.7s0-3.8,3.8-3.8c3.7,0,3.7,1.8,3.7,3.8S35.1,46.1,31.4,46.1z
	 M50.2,42.5c0-2,0-3.7,3.7-3.7c3.8,0,3.8,1.6,3.8,3.7s0,3.8-3.8,3.8C50.2,46.3,50.2,44.5,50.2,42.5z"/>
</svg>
