<?xml version="1.0" encoding="utf-8"?>
<!-- Generator: Adobe Illustrator 23.0.2, SVG Export Plug-In . SVG Version: 6.00 Build 0)  -->
<svg version="1.1" id="圖層_1" xmlns="http://www.w3.org/2000/svg" xmlns:xlink="http://www.w3.org/1999/xlink" x="0px" y="0px"
	 viewBox="0 0 100 99.8" style="enable-background:new 0 0 100 99.8;" xml:space="preserve">
<style type="text/css">
	.st0{fill:#333333;}
	.st1{fill:#FFFFFF;}
</style>
<g>
	<circle class="st0" cx="34.9" cy="37.2" r="2.6"/>
</g>
<g>
	<circle class="st0" cx="48.5" cy="37.2" r="2.6"/>
</g>
<g>
	<path class="st0" d="M47,45.8c-0.4-0.6-1.2-0.8-1.8-0.4c0,0-1.3,0.8-3.5,0.8s-3.6-0.8-3.6-0.8c-0.6-0.4-1.4-0.2-1.7,0.4
		c-0.4,0.6-0.2,1.4,0.4,1.7c0.1,0,2,1.2,4.9,1.2s4.7-1.1,4.9-1.2C47.2,47.2,47.4,46.4,47,45.8z"/>
</g>
<path class="st0" d="M75.2,54.6c1.2,0.3,1.7,10.6,1.7,11.5c0,3.4-0.5,5.8-4.2,6.8c5.7,1.4,5.7,5.5,5.7,10.5c0,2,0,3.7-0.4,5.3
	c0.1,0,0.2,0,0.4,0c0.5,0.1,0.9,0.1,1.4,0.1H80c1.1,0,6.1-0.2,6.1-5.3c-0.1-1.9-0.9-3.7-2.7-4.5c-0.9-0.3-2-0.9-2-2
	c0-0.3,0.1-0.8,0.3-1.2c0.8-1.6,1.3-2.1,1.9-2.1c0.3,0,0.7,0.1,1.1,0.3l0.9,0.4c0.8,0.4,5.4,2.9,5.3,8.9c0,9-7.7,10.7-10.9,10.7
	h-0.4c-1.6,0-3.2-0.3-4.7-0.9c-1.5,0.9-3.8,1.4-7.1,1.4c-10.4,0-10.4-4.9-10.4-11c0-4.9,0-9.1,5.5-10.5c-3.8-0.9-4.3-3.2-4.3-6.8
	c0-1,0.4-11.2,1.8-11.5c0.9,0,2.6,1.8,4,3.9c0.9-0.1,2-0.2,3.3-0.2c1.2,0,2.3,0,3.3,0.2c1.4-2.1,2.9-3.9,3.9-3.9L75.2,54.6"/>
<path class="st1" d="M63.7,68.6c1.4,0,1.4-0.7,1.4-1.5s0-1.5-1.4-1.5s-1.4,0.7-1.4,1.5C62.2,68,62.2,68.6,63.7,68.6"/>
<path class="st1" d="M72.2,68.7c1.4,0,1.4-0.7,1.4-1.5s0-1.5-1.4-1.5s-1.4,0.7-1.4,1.5C70.8,68,70.8,68.7,72.2,68.7"/>
<path class="st0" d="M56.1,72.6c-1.3-2.3-1.3-4.9-1.3-6.5c0-0.6,0.1-3.5,0.4-6.4c0.4-3.6,0.8-8.2,4.6-9l0.4-0.1h0.4
	c1.5,0,3,0.8,4.6,2.2c0.1-0.9,0.3-1.8,0.4-2.8l0,0l0,0c1.1-7.8,1.6-16.9-0.1-24.5c4.8-6,2.3-16.3-1.1-19.2c-1.7-1.4-4.3-1.5-7.2-0.1
	c-1.7,0.8-3.4,2-5,3.5c-3.2-0.8-7-0.9-11.6-0.1c-2,0.4-3.9,0.9-5.6,1.5c-2-2.2-4.3-3.9-6.4-4.9c-2.9-1.4-5.5-1.4-7.2,0.1
	c-3.4,2.8-5.9,13.2-1.1,19.2C12.8,42.1,18,65.3,18,65.3s2.1-4.6,4.1-11.4c0.1,2.4,0.1,4.9-0.1,7.4c-0.7,10.9-6.4,21.8-6.4,21.8
	s3.1-1.2,5.8-3.8c-1,4.7-1.5,9.8-1.5,15.1h5.7C25.6,73.3,34,59,41.8,59c4.9,0,10.1,5.7,13.2,15.2C55.3,73.6,55.6,73.1,56.1,72.6z
	 M58.4,9c1.8-0.9,3.3-1,4-0.3c1.6,1.4,3.8,8.1,1.9,12.9c-1.7-4.7-4.6-8.5-9-10.6C56.3,10.1,57.4,9.5,58.4,9z M21.8,22.5
	c-2.7-4.9-0.3-12.4,1.4-13.8C24,8,25.4,8.1,27.2,9c1.6,0.7,3.2,2,4.8,3.5C27.5,14.9,24.1,18.4,21.8,22.5z M41.8,53.3
	c-7.6,0-14.1-4.8-16.7-11.6c3.8-9.2,9.6-18.4,18.5-22.9c8.2,5.5,12.9,12.7,15.6,19.9C57.7,47.1,50.5,53.3,41.8,53.3z"/>
</svg>
