<?xml version="1.0" encoding="utf-8"?>
<!-- Generator: Adobe Illustrator 23.0.2, SVG Export Plug-In . SVG Version: 6.00 Build 0)  -->
<svg version="1.1" id="圖層_1" xmlns="http://www.w3.org/2000/svg" xmlns:xlink="http://www.w3.org/1999/xlink" x="0px" y="0px"
	 viewBox="0 0 100 99.8" style="enable-background:new 0 0 100 99.8;" xml:space="preserve">
<g>
	<circle cx="44.2" cy="37.2" r="2.6"/>
</g>
<g>
	<circle cx="57.8" cy="37.2" r="2.6"/>
</g>
<g>
	<path d="M56.3,45.8c-0.4-0.6-1.2-0.8-1.8-0.4c0,0-1.3,0.8-3.5,0.8c-2.2,0-3.6-0.8-3.6-0.8c-0.6-0.4-1.4-0.2-1.7,0.4
		c-0.4,0.6-0.2,1.4,0.4,1.7c0.1,0,2,1.2,4.9,1.2c2.9,0,4.7-1.1,4.9-1.2C56.5,47.2,56.6,46.4,56.3,45.8z"/>
</g>
<path d="M77.8,86.3c0,0-1.7-2.3-3.6-7.3c-2.1-6.8-1.1-17.4-0.2-23.7c0.3-1.6,0.6-3.4,0.8-5.2c0,0,0,0,0,0l0,0
	c1.1-7.8,1.6-16.9-0.1-24.5c4.8-6,2.3-16.3-1.1-19.2c-1.7-1.4-4.3-1.5-7.2-0.1c-1.7,0.8-3.4,2-5,3.5c-3.2-0.8-7-0.9-11.6-0.1
	c-2,0.4-3.9,0.9-5.6,1.5c-2-2.2-4.3-3.9-6.4-4.9c-2.9-1.4-5.5-1.4-7.2,0.1c-3.4,2.8-5.9,13.2-1.1,19.2c-7.4,16.6-2.2,39.8-2.2,39.8
	s2.1-4.6,4.1-11.4c0.1,2.4,0.1,4.9-0.1,7.4c-0.7,10.9-6.4,21.8-6.4,21.8s3.1-1.2,5.8-3.8c-1,4.7-1.5,9.8-1.5,15.1h5.7
	c0-21.2,8.4-35.4,16.2-35.4s16.2,14.2,16.2,35.4H73c0-4.1-0.3-8-0.9-11.7C74.8,85.6,77.8,86.3,77.8,86.3z M32.5,8.6
	c0.8-0.6,2.2-0.5,4,0.3c1.6,0.7,3.2,2,4.8,3.5c-4.6,2.4-7.9,5.9-10.2,10C28.3,17.6,30.7,10.1,32.5,8.6z M51.1,53.3
	c-7.6,0-14.1-4.8-16.7-11.6C38.2,32.5,44,23.4,53,18.9c8.2,5.5,12.9,12.7,15.6,19.9C67,47.1,59.7,53.3,51.1,53.3z M64.5,11
	c1-0.8,2.1-1.5,3.1-2c1.8-0.9,3.3-1,4-0.3c1.6,1.4,3.8,8.1,1.9,12.9C71.8,16.9,69,13.1,64.5,11z"/>
</svg>
