<?xml version="1.0" encoding="utf-8"?>
<!-- Generator: Adobe Illustrator 23.0.2, SVG Export Plug-In . SVG Version: 6.00 Build 0)  -->
<svg version="1.1" id="圖層_1" xmlns="http://www.w3.org/2000/svg" xmlns:xlink="http://www.w3.org/1999/xlink" x="0px" y="0px"
	 viewBox="0 0 100 89" style="enable-background:new 0 0 100 89;" xml:space="preserve">
<style type="text/css">
	.st0{fill:#333333;}
</style>
<g>
	<g>
		<path d="M5273.1,2394.6v-2c0-2.8-5-4-9.7-4s-9.7,1.3-9.7,4v2c0,1.8,0.7,3.6,2,4.9l5,4.9c0.3,0.3,0.4,0.6,0.4,1v6.4
			c0,0.4,0.2,0.7,0.6,0.8l2.9,0.9c0.5,0.1,1-0.2,1-0.8v-7.2c0-0.4,0.2-0.7,0.4-1l5.1-5C5272.4,2398.2,5273.1,2396.4,5273.1,2394.6z
			 M5263.4,2394.5c-4.8,0-7.4-1.3-7.5-1.8l0,0c0.1-0.5,2.7-1.8,7.5-1.8s7.3,1.3,7.5,1.8C5270.7,2393.2,5268.2,2394.5,5263.4,2394.5z
			"/>
		<path d="M5268.4,2404.8c-0.6,0-1,0.4-1,1s0.4,1,1,1h4.3c0.6,0,1-0.4,1-1s-0.4-1-1-1H5268.4z"/>
		<path d="M5272.7,2408.2h-4.3c-0.6,0-1,0.4-1,1s0.4,1,1,1h4.3c0.6,0,1-0.4,1-1C5273.7,2408.6,5273.3,2408.2,5272.7,2408.2z"/>
		<path d="M5272.7,2411.5h-4.3c-0.6,0-1,0.4-1,1s0.4,1,1,1h4.3c0.6,0,1-0.4,1-1C5273.7,2412,5273.3,2411.5,5272.7,2411.5z"/>
	</g>
	<g>
		<path class="st0" d="M78.6,50.3c-1.3,0-2.6,0.1-3.8,0.4L64.1,32.2c3-3.3,4.8-7.7,4.8-12.5C68.9,9.3,60.4,0.8,50,0.8
			S31.1,9.3,31.1,19.7c0,4.8,1.9,9.2,4.8,12.5L25.2,50.7c-1.2-0.3-2.5-0.4-3.8-0.4C11,50.3,2.5,58.8,2.5,69.2s8.5,19,18.9,19
			c8.3,0,15.4-5.5,17.9-13h21.4c2.5,7.5,9.5,13,17.9,13c10.4,0,18.9-8.5,18.9-18.9S89,50.3,78.6,50.3z M50,4.8c8.2,0,15,6.7,15,15
			c0,5-2.5,9.3-6.2,12.1l-0.3-2.5c-0.4-3.2-3.1-5.6-6.3-5.6h-4.4c-3.2,0-5.9,2.4-6.3,5.6l-0.3,2.5c-3.7-2.7-6.2-7.1-6.2-12.1
			C35,11.5,41.8,4.8,50,4.8z M30.2,81.3l-0.3-2.5c-0.4-3.2-3.1-5.6-6.3-5.6h-4.4c-3.2,0-5.9,2.4-6.3,5.6l-0.3,2.5
			c-3.7-2.7-6.2-7.1-6.2-12.1c0-8.2,6.7-15,15-15s15,6.7,15,15C36.4,74.2,33.9,78.6,30.2,81.3z M40.1,71.2c0.1-0.7,0.2-1.3,0.2-2
			c0-7.7-4.6-14.3-11.3-17.3l9.8-17c3.1,2.3,6.9,3.7,11.1,3.7s8-1.4,11.1-3.7l9.8,17c-6.6,2.9-11.3,9.6-11.3,17.3
			c0,0.7,0.1,1.3,0.2,2H40.1z M87.3,81.3L87,78.8c-0.4-3.2-3.1-5.6-6.3-5.6h-4.4c-3.2,0-5.9,2.4-6.3,5.6l-0.3,2.5
			c-3.7-2.7-6.2-7.1-6.2-12.1c0-8.2,6.7-15,15-15s15,6.7,15,15C93.5,74.2,91.1,78.6,87.3,81.3z"/>
		<circle class="st0" cx="50" cy="16.2" r="5.9"/>
		<circle class="st0" cx="21.4" cy="65.7" r="5.9"/>
		<circle class="st0" cx="78.6" cy="65.7" r="5.9"/>
	</g>
</g>
</svg>
