<?xml version="1.0" encoding="utf-8"?>
<!-- Generator: Adobe Illustrator 23.0.2, SVG Export Plug-In . SVG Version: 6.00 Build 0)  -->
<svg version="1.1" id="圖層_1" xmlns="http://www.w3.org/2000/svg" xmlns:xlink="http://www.w3.org/1999/xlink" x="0px" y="0px"
	 viewBox="0 0 100 73.1" style="enable-background:new 0 0 100 73.1;" xml:space="preserve">
<style type="text/css">
	.st0{fill:#333333;}
</style>
<g>
	<g>
		<path class="st0" d="M48.3,38.7c1.3-3.1,3.3-7,6.4-9.9h-33c-8.7,0-12.1,9.4-14,14.4C7.4,43.9,7.2,44.5,7,45
			c-1.8,4.5-4.2,16.4-4.4,17.7c-0.5,2.7,1.2,5.3,3.9,5.8c0.3,0.1,0.7,0.1,1,0.1c2.3,0,4.4-1.6,4.9-4c0.9-4.7,2.8-13.1,3.9-15.8
			c0.2-0.6,0.5-1.3,0.8-2.1l0.4,19c0.1,2.5,2.1,4.6,4.7,4.6h12.6c2.5,0,4.6-2,4.7-4.6l0.5-27C40,38.7,48.3,38.7,48.3,38.7z"/>
		<circle class="st0" cx="28.4" cy="14.2" r="11.6"/>
		<path class="st0" d="M97.4,62.7c-0.3-1.3-2.6-13.2-4.5-17.7c-0.2-0.5-0.4-1.1-0.7-1.8c-1.8-5-5.3-14.4-14-14.4H65
			c-8.7,0-12.1,9.3-14,14.4c-0.3,0.7-0.5,1.3-0.7,1.8c-1.9,4.5-4.2,16.3-4.5,17.7c-0.5,2.7,1.2,5.3,3.9,5.8s5.3-1.2,5.8-3.9
			c0.9-4.7,2.8-13.1,3.9-15.8c0.2-0.6,0.5-1.3,0.8-2.1l0.4,19c0.1,2.5,2.1,4.6,4.7,4.6h12.6c2.5,0,4.6-2,4.7-4.6l0.4-19
			c0.3,0.8,0.5,1.5,0.8,2.1c1.1,2.7,3,11.1,3.9,15.8c0.5,2.4,2.5,4,4.9,4c0.3,0,0.6,0,1-0.1C96.2,68,97.9,65.4,97.4,62.7z"/>
		<circle class="st0" cx="71.6" cy="14.2" r="11.6"/>
	</g>
</g>
</svg>
